<?xml version="1.0" standalone="no"?>
<!DOCTYPE svg PUBLIC "-//W3C//DTD SVG 20010904//EN"
 "http://www.w3.org/TR/2001/REC-SVG-20010904/DTD/svg10.dtd">
<svg version="1.0" xmlns="http://www.w3.org/2000/svg"
 width="59.000000pt" height="53.000000pt" viewBox="0 0 59.000000 53.000000"
 preserveAspectRatio="xMidYMid meet">

<g transform="translate(0.000000,53.000000) scale(0.100000,-0.100000)"
fill="#000000" stroke="none">
<path d="M127 515 c-94 -19 -106 -24 -117 -46 -11 -19 -3 -63 21 -128 9 -23
11 -24 20 -9 28 51 288 72 416 34 49 -14 66 -16 77 -7 19 16 41 110 29 122 -6
6 -52 19 -104 29 -109 23 -242 24 -342 5z"/>
<path d="M115 353 c-31 -8 -55 -34 -55 -59 0 -26 15 -40 23 -20 3 7 27 19 54
26 26 6 56 14 67 17 16 4 15 7 -10 24 -29 19 -42 21 -79 12z"/>
<path d="M220 303 c-63 -10 -128 -34 -134 -49 -6 -17 37 -106 61 -126 10 -8
17 -7 26 6 25 34 127 41 214 15 43 -14 62 -2 95 59 l28 50 -38 15 c-74 30
-179 42 -252 30z"/>
<path d="M208 138 c-40 -14 -36 -46 10 -96 51 -55 84 -56 133 -6 31 32 33 36
16 45 -10 6 -33 24 -51 40 -35 30 -62 34 -108 17z"/>
</g>
</svg>
